<svg width="24" height="24" viewBox="0 0 24 24" fill="none" xmlns="http://www.w3.org/2000/svg">
<rect x="11" y="13" width="2" height="2" transform="rotate(-90 11 13)" fill="currentColor"/>
<rect x="9" y="15" width="2" height="2" transform="rotate(-90 9 15)" fill="currentColor"/>
<rect x="7" y="17" width="2" height="2" transform="rotate(-90 7 17)" fill="currentColor"/>
<rect x="5" y="19" width="2" height="2" transform="rotate(-90 5 19)" fill="currentColor"/>
<rect x="13" y="11" width="2" height="2" transform="rotate(-90 13 11)" fill="currentColor"/>
<rect x="15" y="9" width="2" height="2" transform="rotate(-90 15 9)" fill="currentColor"/>
<rect x="17" y="7" width="2" height="2" transform="rotate(-90 17 7)" fill="currentColor"/>
<rect x="9" y="11" width="2" height="2" transform="rotate(-90 9 11)" fill="currentColor"/>
<rect x="7" y="9" width="2" height="2" transform="rotate(-90 7 9)" fill="currentColor"/>
<rect x="5" y="7" width="2" height="2" transform="rotate(-90 5 7)" fill="currentColor"/>
<rect x="13" y="15" width="2" height="2" transform="rotate(-90 13 15)" fill="currentColor"/>
<rect x="15" y="17" width="2" height="2" transform="rotate(-90 15 17)" fill="currentColor"/>
<rect x="17" y="19" width="2" height="2" transform="rotate(-90 17 19)" fill="currentColor"/>
</svg>
