<svg width="24" height="24" viewBox="0 0 24 24" fill="none" xmlns="http://www.w3.org/2000/svg">
<rect x="18" y="11" width="2" height="2" transform="rotate(-90 18 11)" fill="currentColor"/>
<rect x="8" y="11" width="2" height="2" transform="rotate(-90 8 11)" fill="currentColor"/>
<rect x="18" y="9" width="2" height="2" transform="rotate(-90 18 9)" fill="currentColor"/>
<rect x="8" y="9" width="2" height="2" transform="rotate(-90 8 9)" fill="currentColor"/>
<rect x="18" y="7" width="2" height="2" transform="rotate(-90 18 7)" fill="currentColor"/>
<rect x="8" y="7" width="2" height="2" transform="rotate(-90 8 7)" fill="currentColor"/>
<rect x="14" y="13" width="2" height="2" transform="rotate(-90 14 13)" fill="currentColor"/>
<rect x="4" y="13" width="2" height="2" transform="rotate(-90 4 13)" fill="currentColor"/>
<rect x="14" y="11" width="2" height="2" transform="rotate(-90 14 11)" fill="currentColor"/>
<rect x="4" y="11" width="2" height="2" transform="rotate(-90 4 11)" fill="currentColor"/>
<rect x="18" y="13" width="2" height="2" transform="rotate(-90 18 13)" fill="currentColor"/>
<rect x="8" y="13" width="2" height="2" transform="rotate(-90 8 13)" fill="currentColor"/>
<rect x="14" y="9" width="2" height="2" transform="rotate(-90 14 9)" fill="currentColor"/>
<rect x="4" y="9" width="2" height="2" transform="rotate(-90 4 9)" fill="currentColor"/>
<rect x="14" y="7" width="2" height="2" transform="rotate(-90 14 7)" fill="currentColor"/>
<rect x="4" y="7" width="2" height="2" transform="rotate(-90 4 7)" fill="currentColor"/>
<rect x="14" y="15" width="2" height="2" transform="rotate(-90 14 15)" fill="currentColor"/>
<rect x="4" y="15" width="2" height="2" transform="rotate(-90 4 15)" fill="currentColor"/>
<rect x="18" y="15" width="2" height="2" transform="rotate(-90 18 15)" fill="currentColor"/>
<rect x="8" y="15" width="2" height="2" transform="rotate(-90 8 15)" fill="currentColor"/>
<rect x="14" y="17" width="2" height="2" transform="rotate(-90 14 17)" fill="currentColor"/>
<rect x="4" y="17" width="2" height="2" transform="rotate(-90 4 17)" fill="currentColor"/>
<rect x="14" y="19" width="2" height="2" transform="rotate(-90 14 19)" fill="currentColor"/>
<rect x="4" y="19" width="2" height="2" transform="rotate(-90 4 19)" fill="currentColor"/>
<rect x="16" y="21" width="2" height="2" transform="rotate(-90 16 21)" fill="currentColor"/>
<rect x="6" y="21" width="2" height="2" transform="rotate(-90 6 21)" fill="currentColor"/>
<rect x="16" y="5" width="2" height="2" transform="rotate(-90 16 5)" fill="currentColor"/>
<rect x="6" y="5" width="2" height="2" transform="rotate(-90 6 5)" fill="currentColor"/>
<rect x="18" y="17" width="2" height="2" transform="rotate(-90 18 17)" fill="currentColor"/>
<rect x="8" y="17" width="2" height="2" transform="rotate(-90 8 17)" fill="currentColor"/>
<rect x="18" y="19" width="2" height="2" transform="rotate(-90 18 19)" fill="currentColor"/>
<rect x="8" y="19" width="2" height="2" transform="rotate(-90 8 19)" fill="currentColor"/>
</svg>
