<svg width="24" height="24" viewBox="0 0 24 24" fill="none" xmlns="http://www.w3.org/2000/svg">
<path d="M11 17H13V19H11V17Z" fill="currentColor"/>
<path d="M9 17H11V19H9V17Z" fill="currentColor"/>
<path d="M17 13V11H19V13H17Z" fill="currentColor"/>
<path d="M5 13V11H7V13H5Z" fill="currentColor"/>
<path d="M5 15V13H7V15H5Z" fill="currentColor"/>
<path d="M11 5H13V7H11V5Z" fill="currentColor"/>
<path d="M13 17H15V19H13V17Z" fill="currentColor"/>
<path d="M17 11V9H19V11H17Z" fill="currentColor"/>
<path d="M3 11L3 9H5V11H3Z" fill="currentColor"/>
<path d="M13 3H15V5H13V3Z" fill="currentColor"/>
<path d="M13 19H15V21H13V19Z" fill="currentColor"/>
<path d="M19 11V9H21V11H19Z" fill="currentColor"/>
<path d="M5 11V9H7V11H5Z" fill="currentColor"/>
<path d="M13 5H15V7H13V5Z" fill="currentColor"/>
<path d="M15 3H17V5H15V3Z" fill="currentColor"/>
<path d="M19 3H21V5H19V3Z" fill="currentColor"/>
<path d="M17 5H19V7H17V5Z" fill="currentColor"/>
<path d="M19 7H21V9H19V7Z" fill="currentColor"/>
<path d="M15 19H17V21H15V19Z" fill="currentColor"/>
<path d="M17 15V13H19V15H17Z" fill="currentColor"/>
<path d="M15 17V15H17V17H15Z" fill="currentColor"/>
<path d="M17 19V17H19V19H17Z" fill="currentColor"/>
<path d="M7 17V15H9V17H7Z" fill="currentColor"/>
<path d="M5 19V17H7V19H5Z" fill="currentColor"/>
<path d="M7 9V7H9V9H7Z" fill="currentColor"/>
<path d="M5 7V5H7V7H5Z" fill="currentColor"/>
<path d="M15 9V7H17V9H15Z" fill="currentColor"/>
<path d="M3 15L3 13H5V15H3Z" fill="currentColor"/>
<path d="M9 3H11V5H9V3Z" fill="currentColor"/>
<path d="M9 19H11V21H9V19Z" fill="currentColor"/>
<path d="M19 15V13H21V15H19Z" fill="currentColor"/>
<path d="M9 5H11V7H9V5Z" fill="currentColor"/>
<path d="M7 3H9V5H7V3Z" fill="currentColor"/>
<path d="M7 19H9V21H7V19Z" fill="currentColor"/>
<path d="M3 19H5V21H3V19Z" fill="currentColor"/>
<path d="M3 9V7H5V9H3Z" fill="currentColor"/>
<path d="M3 5L3 3L5 3V5H3Z" fill="currentColor"/>
<path d="M3 17V15H5V17H3Z" fill="currentColor"/>
<path d="M19 17V15H21V17H19Z" fill="currentColor"/>
<path d="M19 21V19H21V21H19Z" fill="currentColor"/>
</svg>
