<svg width="77" height="24" viewBox="0 0 77 24" fill="none" xmlns="http://www.w3.org/2000/svg">
<path d="M11 17.0002H13V19.0002H11V17.0002Z" fill="currentColor"/>
<path d="M9 17.0002H11V19.0002H9V17.0002Z" fill="currentColor"/>
<path d="M17 13.0002V11.0002H19V13.0002H17Z" fill="currentColor"/>
<path d="M5 13.0002V11.0002H7V13.0002H5Z" fill="currentColor"/>
<path d="M5 15.0002V13.0002H7V15.0002H5Z" fill="currentColor"/>
<path d="M11 5.0002H13V7.0002H11V5.0002Z" fill="currentColor"/>
<path d="M13 17.0002H15V19.0002H13V17.0002Z" fill="currentColor"/>
<path d="M17 11.0002V9.0002H19V11.0002H17Z" fill="currentColor"/>
<path d="M3 11.0002L3 9.0002H5V11.0002H3Z" fill="currentColor"/>
<path d="M13 3.0002H15V5.0002H13V3.0002Z" fill="currentColor"/>
<path d="M13 19.0002H15V21.0002H13V19.0002Z" fill="currentColor"/>
<path d="M19 11.0002V9.0002H21V11.0002H19Z" fill="currentColor"/>
<path d="M5 11.0002V9.0002H7V11.0002H5Z" fill="currentColor"/>
<path d="M13 5.0002H15V7.0002H13V5.0002Z" fill="currentColor"/>
<path d="M15 3.0002H17V5.0002H15V3.0002Z" fill="currentColor"/>
<path d="M19 3.0002H21V5.0002H19V3.0002Z" fill="currentColor"/>
<path d="M17 5.0002H19V7.0002H17V5.0002Z" fill="currentColor"/>
<path d="M19 7.0002H21V9.0002H19V7.0002Z" fill="currentColor"/>
<path d="M15 19.0002H17V21.0002H15V19.0002Z" fill="currentColor"/>
<path d="M17 15.0002V13.0002H19V15.0002H17Z" fill="currentColor"/>
<path d="M15 17.0002V15.0002H17V17.0002H15Z" fill="currentColor"/>
<path d="M17 19.0002V17.0002H19V19.0002H17Z" fill="currentColor"/>
<path d="M7 17.0002V15.0002H9V17.0002H7Z" fill="currentColor"/>
<path d="M5 19.0002V17.0002H7V19.0002H5Z" fill="currentColor"/>
<path d="M7 9.0002V7.0002H9V9.0002H7Z" fill="currentColor"/>
<path d="M5 7.0002V5.0002H7V7.0002H5Z" fill="currentColor"/>
<path d="M15 9.0002V7.0002H17V9.0002H15Z" fill="currentColor"/>
<path d="M3 15.0002L3 13.0002H5V15.0002H3Z" fill="currentColor"/>
<path d="M9 3.0002H11V5.0002H9V3.0002Z" fill="currentColor"/>
<path d="M9 19.0002H11V21.0002H9V19.0002Z" fill="currentColor"/>
<path d="M19 15.0002V13.0002H21V15.0002H19Z" fill="currentColor"/>
<path d="M9 5.0002H11V7.0002H9V5.0002Z" fill="currentColor"/>
<path d="M7 3.0002H9V5.0002H7V3.0002Z" fill="currentColor"/>
<path d="M7 19.0002H9V21.0002H7V19.0002Z" fill="currentColor"/>
<path d="M3 19.0002H5V21.0002H3V19.0002Z" fill="currentColor"/>
<path d="M3 9.0002V7.0002H5V9.0002H3Z" fill="currentColor"/>
<path d="M3 5.0002L3 3.0002L5 3.0002V5.0002H3Z" fill="currentColor"/>
<path d="M3 17.0002V15.0002H5V17.0002H3Z" fill="currentColor"/>
<path d="M19 17.0002V15.0002H21V17.0002H19Z" fill="currentColor"/>
<path d="M19 21.0002V19.0002H21V21.0002H19Z" fill="currentColor"/>
<path d="M33.05 21.0502C32.2167 21.0502 31.4 20.9419 30.6 20.7252C29.8 20.4919 29.0667 20.1335 28.4 19.6502C27.75 19.1669 27.2083 18.5419 26.775 17.7752C26.3583 17.0085 26.1 16.0919 26 15.0252H28.8C28.9333 15.8919 29.2167 16.5752 29.65 17.0752C30.0833 17.5752 30.6 17.9335 31.2 18.1502C31.8167 18.3669 32.45 18.4752 33.1 18.4752C33.7667 18.4752 34.3667 18.3752 34.9 18.1752C35.4333 17.9585 35.8583 17.6502 36.175 17.2502C36.4917 16.8502 36.65 16.3669 36.65 15.8002C36.65 15.2502 36.4917 14.7669 36.175 14.3502C35.875 13.9169 35.25 13.6169 34.3 13.4502L31.2 12.8752C29.8167 12.6085 28.7167 12.0419 27.9 11.1752C27.1 10.3085 26.7 9.28353 26.7 8.10019C26.7 7.01686 26.975 6.09186 27.525 5.32519C28.0917 4.55853 28.8333 3.97519 29.75 3.57519C30.6833 3.15853 31.7083 2.9502 32.825 2.9502C33.9917 2.9502 35.0333 3.1502 35.95 3.5502C36.8667 3.95019 37.6167 4.55853 38.2 5.3752C38.7833 6.1752 39.1333 7.20853 39.25 8.47519H36.4C36.2833 7.7252 36.05 7.13353 35.7 6.70019C35.3667 6.26686 34.95 5.95853 34.45 5.77519C33.9667 5.59186 33.4417 5.5002 32.875 5.5002C32.3583 5.5002 31.8333 5.58353 31.3 5.7502C30.7833 5.91686 30.3583 6.18353 30.025 6.5502C29.6917 6.91686 29.525 7.40853 29.525 8.0252C29.525 8.5752 29.725 9.0502 30.125 9.4502C30.525 9.8502 31.1417 10.1252 31.975 10.2752L34.85 10.8252C36.3167 11.0919 37.4583 11.6169 38.275 12.4002C39.0917 13.1835 39.5 14.2919 39.5 15.7252C39.5 16.5919 39.3167 17.3585 38.95 18.0252C38.5833 18.6919 38.0833 19.2502 37.45 19.7002C36.8333 20.1335 36.1417 20.4669 35.375 20.7002C34.625 20.9335 33.85 21.0502 33.05 21.0502Z" fill="currentColor"/>
<path d="M44.8178 20.7503C44.0178 20.7503 43.3428 20.6586 42.7928 20.4753C42.2428 20.2753 41.8262 19.9086 41.5429 19.3753C41.2595 18.8419 41.1179 18.0669 41.1179 17.0503V5.10027H44.1178V8.35027H47.3678V10.8753H44.1178V16.6503C44.1178 17.1003 44.1595 17.4336 44.2428 17.6503C44.3428 17.8669 44.5095 18.0169 44.7428 18.1003C44.9762 18.1669 45.3178 18.2003 45.7678 18.2003H47.2428V20.7503H44.8178Z" fill="currentColor"/>
<path d="M48.5046 20.7503V8.35027H51.5046V20.7503H48.5046ZM48.5046 6.22527V3.15027H51.5296V6.22527H48.5046Z" fill="currentColor"/>
<path d="M53.4024 20.7503V8.35027H56.4024V10.2753C56.8191 9.59194 57.3774 9.05027 58.0774 8.65027C58.7941 8.25027 59.6108 8.05027 60.5274 8.05027C62.0608 8.05027 63.2524 8.53361 64.1024 9.50027C64.9524 10.4503 65.3774 11.8503 65.3774 13.7003V20.7503H62.3774V14.0003C62.3774 12.8836 62.1441 12.0419 61.6774 11.4753C61.2274 10.8919 60.5358 10.6003 59.6024 10.6003C58.6858 10.6003 57.9191 10.9253 57.3024 11.5753C56.7024 12.2253 56.4024 13.1503 56.4024 14.3503V20.7503H53.4024Z" fill="currentColor"/>
<path d="M71.2003 20.7503C70.4003 20.7503 69.7253 20.6586 69.1753 20.4753C68.6253 20.2753 68.2086 19.9086 67.9253 19.3753C67.6419 18.8419 67.5003 18.0669 67.5003 17.0503V5.10027H70.5003V8.35027H73.7503V10.8753H70.5003V16.6503C70.5003 17.1003 70.5419 17.4336 70.6253 17.6503C70.7253 17.8669 70.8919 18.0169 71.1253 18.1003C71.3586 18.1669 71.7003 18.2003 72.1503 18.2003H73.6253V20.7503H71.2003Z" fill="currentColor"/>
</svg>
