<svg width="44" height="44" viewBox="0 0 44 44" fill="none" xmlns="http://www.w3.org/2000/svg">
<path d="M39.8125 16.7612H41.9025V25.135H39.8125V16.7612Z" fill="currentColor"/>
<path d="M37.7109 25.1348H39.8147V27.2385H37.7109V25.1348Z" fill="currentColor"/>
<path d="M35.6191 14.6577H39.8129V16.7615H35.6191V14.6577Z" fill="currentColor"/>
<path d="M35.6191 27.2388H37.7091V29.3288H35.6191V27.2388Z" fill="currentColor"/>
<path d="M35.6191 20.9551H37.7091V23.0451H35.6191V20.9551Z" fill="currentColor"/>
<path d="M33.5156 25.1348H35.6194V27.2385H33.5156V25.1348Z" fill="currentColor"/>
<path d="M33.5156 16.7612H35.6194V20.955H33.5156V16.7612Z" fill="currentColor"/>
<path d="M27.2326 6.28336V8.37336H25.1426V12.5671H27.2326V14.6571H29.3363V43.9996H31.4263V31.4184H35.6201V29.3284H31.4263V23.0446H33.5163V20.9546H31.4263V12.5671H33.5163V8.37336H31.4263V10.4771H29.3363V8.37336H31.4263V4.19336H29.3363V6.28336H27.2326Z" fill="currentColor"/>
<path d="M27.2324 2.09009H29.3362V4.19384H27.2324V2.09009Z" fill="currentColor"/>
<path d="M25.1426 33.5225H27.2326V37.7162H25.1426V33.5225Z" fill="currentColor"/>
<path d="M25.1426 23.0449H27.2326V27.2387H25.1426V23.0449Z" fill="currentColor"/>
<path d="M20.9492 0H27.233V2.09H20.9492V0Z" fill="currentColor"/>
<path d="M20.9492 39.8066H23.0392V41.8966H20.9492V39.8066Z" fill="currentColor"/>
<path d="M20.9492 27.2388H23.0392V31.4188H20.9492V27.2388Z" fill="currentColor"/>
<path d="M20.9492 16.7612H23.0392V20.955H20.9492V16.7612Z" fill="currentColor"/>
<path d="M20.9492 6.28345H23.0392V8.37345H20.9492V6.28345Z" fill="currentColor"/>
<path d="M18.8594 2.09009H20.9494V4.19384H18.8594V2.09009Z" fill="currentColor"/>
<path d="M16.7559 35.6123H18.8596V43.9998H16.7559V35.6123Z" fill="currentColor"/>
<path d="M16.7559 10.4775H18.8596V25.135H16.7559V10.4775Z" fill="currentColor"/>
<path d="M18.8582 8.37384V4.19384H16.7545V6.28384H14.6645V4.19384H16.7545V2.09009H12.5745V4.19384H10.4707V8.37384H12.5745V10.4776H16.7545V8.37384H18.8582Z" fill="currentColor"/>
<path d="M14.6641 25.1348H16.7541V27.2385H14.6641V25.1348Z" fill="currentColor"/>
<path d="M12.5742 29.3291H14.6642V31.4191H12.5742V29.3291Z" fill="currentColor"/>
<path d="M12.5742 23.0449H14.6642V25.1349H12.5742V23.0449Z" fill="currentColor"/>
<path d="M10.4707 33.5225H16.7545V35.6125H10.4707V33.5225Z" fill="currentColor"/>
<path d="M10.4707 14.6577H12.5745V23.0452H10.4707V14.6577Z" fill="currentColor"/>
<path d="M8.38086 31.4189H10.4709V33.5227H8.38086V31.4189Z" fill="currentColor"/>
<path d="M8.38086 25.1348H10.4709V27.2385H8.38086V25.1348Z" fill="currentColor"/>
<path d="M4.1875 12.5679H10.4712V14.6579H4.1875V12.5679Z" fill="currentColor"/>
<path d="M6.27734 29.3291H8.38109V31.4191H6.27734V29.3291Z" fill="currentColor"/>
<path d="M6.27734 18.8511H8.38109V23.0448H6.27734V18.8511Z" fill="currentColor"/>
<path d="M4.1875 27.2388H6.2775V29.3288H4.1875V27.2388Z" fill="currentColor"/>
<path d="M2.09766 14.6577H4.18766V27.239H2.09766V14.6577Z" fill="currentColor"/>
</svg>
