<svg width="32" height="32" viewBox="0 0 32 32" fill="none" xmlns="http://www.w3.org/2000/svg">
<rect width="32" height="32" fill="#161616"/>
<path d="M14.9623 21.185H17.0364V23.2591H14.9623V21.185Z" fill="white"/>
<path d="M12.8882 21.185H14.9623V23.2591H12.8882V21.185Z" fill="white"/>
<path d="M21.1845 17.0369V14.9628H23.2586V17.0369H21.1845Z" fill="white"/>
<path d="M8.74009 17.0369V14.9628H10.8142V17.0369H8.74009Z" fill="white"/>
<path d="M8.74009 19.1109V17.0369H10.8142V19.1109H8.74009Z" fill="white"/>
<path d="M14.9623 8.74058H17.0364V10.8147H14.9623V8.74058Z" fill="white"/>
<path d="M17.0364 21.185H19.1105V23.2591H17.0364V21.185Z" fill="white"/>
<path d="M21.1845 14.9628V12.8887H23.2586V14.9628H21.1845Z" fill="white"/>
<path d="M6.66602 14.9628L6.66602 12.8887H8.74009V14.9628H6.66602Z" fill="white"/>
<path d="M17.0364 6.6665H19.1105V8.74058H17.0364V6.6665Z" fill="white"/>
<path d="M17.0364 23.2591H19.1105V25.3332H17.0364V23.2591Z" fill="white"/>
<path d="M23.2586 14.9628V12.8887H25.3327V14.9628H23.2586Z" fill="white"/>
<path d="M8.74009 14.9628V12.8887H10.8142V14.9628H8.74009Z" fill="white"/>
<path d="M17.0364 8.74058H19.1105V10.8147H17.0364V8.74058Z" fill="white"/>
<path d="M19.1105 6.6665H21.1845V8.74058H19.1105V6.6665Z" fill="white"/>
<path d="M23.2586 6.6665H25.3327V8.74058H23.2586V6.6665Z" fill="white"/>
<path d="M21.1845 8.74058H23.2586V10.8147H21.1845V8.74058Z" fill="white"/>
<path d="M23.2586 10.8147H25.3327V12.8887H23.2586V10.8147Z" fill="white"/>
<path d="M19.1105 23.2591H21.1845V25.3332H19.1105V23.2591Z" fill="white"/>
<path d="M21.1845 19.1109V17.0369H23.2586V19.1109H21.1845Z" fill="white"/>
<path d="M19.1105 21.185V19.1109H21.1845V21.185H19.1105Z" fill="white"/>
<path d="M21.1845 23.2591V21.185H23.2586V23.2591H21.1845Z" fill="white"/>
<path d="M10.8142 21.185V19.1109H12.8882V21.185H10.8142Z" fill="white"/>
<path d="M8.74009 23.2591V21.185H10.8142V23.2591H8.74009Z" fill="white"/>
<path d="M10.8142 12.8887V10.8147H12.8882V12.8887H10.8142Z" fill="white"/>
<path d="M8.74009 10.8147V8.74058H10.8142V10.8147H8.74009Z" fill="white"/>
<path d="M19.1105 12.8887V10.8147H21.1845V12.8887H19.1105Z" fill="white"/>
<path d="M6.66602 19.1109L6.66602 17.0369H8.74009V19.1109H6.66602Z" fill="white"/>
<path d="M12.8882 6.6665H14.9623V8.74058H12.8882V6.6665Z" fill="white"/>
<path d="M12.8882 23.2591H14.9623V25.3332H12.8882V23.2591Z" fill="white"/>
<path d="M23.2586 19.1109V17.0369H25.3327V19.1109H23.2586Z" fill="white"/>
<path d="M12.8882 8.74058H14.9623V10.8147H12.8882V8.74058Z" fill="white"/>
<path d="M10.8142 6.6665H12.8882V8.74058H10.8142V6.6665Z" fill="white"/>
<path d="M10.8142 23.2591H12.8882V25.3332H10.8142V23.2591Z" fill="white"/>
<path d="M6.66602 23.2591H8.74009V25.3332H6.66602V23.2591Z" fill="white"/>
<path d="M6.66602 12.8887V10.8147H8.74009V12.8887H6.66602Z" fill="white"/>
<path d="M6.66602 8.74058L6.66602 6.6665L8.74009 6.6665V8.74058H6.66602Z" fill="white"/>
<path d="M6.66602 21.185V19.1109H8.74009V21.185H6.66602Z" fill="white"/>
<path d="M23.2586 21.185V19.1109H25.3327V21.185H23.2586Z" fill="white"/>
<path d="M23.2586 25.3332V23.2591H25.3327V25.3332H23.2586Z" fill="white"/>
</svg>
